<?xml version="1.0" encoding="utf-8"?>
<svg width="24px" height="23px" viewBox="0 0 24 23" version="1.1" xmlns:xlink="http://www.w3.org/1999/xlink" xmlns="http://www.w3.org/2000/svg">
  <desc>Created with Lunacy</desc>
  <g id="icons8-collaboration">
    <path d="M0 8L0 0L15 0L15 2L24 2L24 11L22 11L22 13.4063C22.6104 14.1092 23 15.0033 23 16C23 17.1142 22.5247 18.1161 21.7813 18.8438C23.112 19.7456 24 21.2841 24 23L22 23C22 21.3455 20.6545 20 19 20C17.3455 20 16 21.3455 16 23L14 23C14 21.2841 14.888 19.7456 16.2188 18.8438C15.4753 18.1161 15 17.1142 15 16C15 13.9394 16.5844 12.2365 18.5938 12.0313L17.5625 11L10 11L10 8L6.3125 8L3.5625 9.84375L2 10.875L2 8L0 8ZM13 2L2 2L2 6L4 6L4 7.125L5.4375 6.15625L5.6875 6L13 6L13 2ZM15 4L22 4L22 9L20 9L20 10.5625L18.7188 9.28125L18.4063 9L12 9L12 8L15 8L15 4ZM1 16C1 13.8027 2.80271 12 5 12C7.19729 12 9 13.8027 9 16C9 17.1142 8.52474 18.1161 7.78125 18.8438C9.11204 19.7456 10 21.2841 10 23L8 23C8 21.3455 6.65454 20 5 20C3.34545 20 2 21.3455 2 23L0 23C0 21.2841 0.887962 19.7456 2.21875 18.8438C1.47526 18.1161 1 17.1142 1 16ZM5 14C6.11641 14 7 14.8836 7 16C7 17.1164 6.11641 18 5 18C3.88359 18 3 17.1164 3 16C3 14.8836 3.88359 14 5 14ZM21 16C21 14.8836 20.1164 14 19 14C17.8836 14 17 14.8836 17 16C17 17.1164 17.8836 18 19 18C20.1164 18 21 17.1164 21 16Z" id="Shape" fill="#FFFFFF" fill-rule="evenodd" stroke="none" />
  </g>
</svg>