<?xml version="1.0" encoding="utf-8"?>
<svg width="22px" height="22px" viewBox="0 0 22 22" version="1.1" xmlns:xlink="http://www.w3.org/1999/xlink" xmlns="http://www.w3.org/2000/svg">
  <desc>Created with Lunacy</desc>
  <g id="icons8-inbox">
    <path d="M2.15625 0L2 0.84375L0 13.8438L0 22L22 22L22 13.8438L20 0.84375L19.8438 0L2.15625 0ZM3.875 2L18.125 2L19.8125 13L13 13L13 14C13 15.1167 12.1167 16 11 16C9.88333 16 9 15.1167 9 14L9 13L2.1875 13L3.875 2ZM7.1875 15L2 15L2 20L20 20L20 15L14.8125 15C14.359 16.7106 12.8466 18 11 18C9.15339 18 7.64097 16.7106 7.1875 15Z" id="Shape" fill="#FFFFFF" fill-rule="evenodd" stroke="none" />
  </g>
</svg>