<?xml version="1.0" encoding="utf-8"?>
<svg width="19px" height="24px" viewBox="0 0 19 24" version="1.1" xmlns:xlink="http://www.w3.org/1999/xlink" xmlns="http://www.w3.org/2000/svg">
  <desc>Created with Lunacy</desc>
  <g id="icons8-live_folder">
    <path d="M0 0L0 21.4595L0.669643 21.5946L10.9554 23.7838L12 24L12 21.6216L17.1429 21.6216L17.1429 17.1081L17.9196 16.8108L18.7232 16.4865L18.4286 15.7027L17.0893 12.1081L17.1429 12.1081L17.1429 10.7568L18.6161 9.27027L18.8571 9L18.8571 0L0 0ZM7.74107 1.72973L17.1429 1.72973L17.1429 8.27027L16.0446 9.37838L14.0357 4.02703L13.7411 3.21622L12.9375 3.51351L10.2857 4.54054L10.2857 2.37838L9.64286 2.21622L7.74107 1.72973ZM8.57143 3.72973L1.71429 1.97297L1.71429 20.0541L10.2857 21.8919L10.2857 12.9189L8.8125 11.4324L8.57143 11.1892L8.57143 3.72973ZM12.75 5.45946L16.5268 15.4865L12 17.2703L12 12.2162L11.7589 11.9459L10.2857 10.4595L10.2857 6.40541L12.75 5.45946ZM15.4286 19.8919L15.4286 17.7838L12 19.1081L12 19.8919L15.4286 19.8919Z" id="Shape" fill="#FFFFFF" fill-rule="evenodd" stroke="none" />
  </g>
</svg>