<?xml version="1.0" encoding="utf-8"?>
<svg width="24px" height="15px" viewBox="0 0 24 15" version="1.1" xmlns:xlink="http://www.w3.org/1999/xlink" xmlns="http://www.w3.org/2000/svg">
  <desc>Created with Lunacy</desc>
  <g id="icons8-user_group_man_man">
    <path d="M6.4 0C3.75851 0 1.6 2.15851 1.6 4.8C1.6 6.38699 2.38011 7.80003 3.575 8.675C1.46492 9.72326 0 11.8914 0 14.4L1.6 14.4C1.6 11.7396 3.73955 9.6 6.4 9.6C9.06045 9.6 11.2 11.7396 11.2 14.4L12.8 14.4C12.8 11.7396 14.9396 9.6 17.6 9.6C20.2605 9.6 22.4 11.7396 22.4 14.4L24 14.4C24 11.8914 22.5351 9.72326 20.425 8.675C21.6199 7.80003 22.4 6.38699 22.4 4.8C22.4 2.15851 20.2415 0 17.6 0C14.9585 0 12.8 2.15851 12.8 4.8C12.8 6.38699 13.5801 7.80003 14.775 8.675C13.6082 9.25464 12.6312 10.1643 12 11.3C11.3688 10.1643 10.3918 9.25464 9.225 8.675C10.4199 7.80003 11.2 6.38699 11.2 4.8C11.2 2.15851 9.04149 0 6.4 0ZM6.4 1.6C8.17679 1.6 9.6 3.02321 9.6 4.8C9.6 6.57679 8.17679 8 6.4 8C4.62321 8 3.2 6.57679 3.2 4.8C3.2 3.02321 4.62321 1.6 6.4 1.6ZM20.8 4.8C20.8 3.02321 19.3768 1.6 17.6 1.6C15.8232 1.6 14.4 3.02321 14.4 4.8C14.4 6.57679 15.8232 8 17.6 8C19.3768 8 20.8 6.57679 20.8 4.8Z" id="Shape" fill="#FFFFFF" fill-rule="evenodd" stroke="none" />
  </g>
</svg>