<?xml version="1.0" encoding="utf-8"?>
<svg width="24px" height="22px" viewBox="0 0 24 22" version="1.1" xmlns:xlink="http://www.w3.org/1999/xlink" xmlns="http://www.w3.org/2000/svg">
  <desc>Created with Lunacy</desc>
  <g id="icons8-number_pad">
    <path d="M3.31731 1.26923C5.36312 0.661016 8.40655 0 12 0C15.5934 0 18.6372 0.662074 20.6827 1.26923C22.6397 1.85199 24 3.66189 24 5.71154L24 8.30769C24 9.31667 23.1628 10.1538 22.1538 10.1538L18.4615 10.1538C17.4526 10.1538 16.6154 9.31667 16.6154 8.30769L16.6154 5.88461C16.4425 5.8038 16.4056 5.77352 15.8942 5.625C15.0539 5.38097 13.7692 5.13461 12 5.13461C10.2308 5.13461 8.94608 5.38097 8.10577 5.625C7.59435 5.77352 7.55754 5.8038 7.38462 5.88461L7.38462 8.30769C7.38462 9.31667 6.54744 10.1538 5.53846 10.1538L1.84615 10.1538C0.837173 10.1538 0 9.31667 0 8.30769L0 5.71154C0 3.66189 1.35985 1.85096 3.31731 1.26923ZM20.1635 3.02885C18.2471 2.46 15.3666 1.84615 12 1.84615C8.63345 1.84615 5.75257 2.45922 3.83654 3.02885C2.64446 3.38312 1.84615 4.47503 1.84615 5.71154L1.84615 8.30769L5.53846 8.30769L5.53846 4.73077L6 4.47115C6 4.47115 6.58646 4.12697 7.58654 3.83654C8.58661 3.54611 10.0538 3.28846 12 3.28846C13.9462 3.28846 15.4134 3.54611 16.4135 3.83654C17.4135 4.12697 18 4.47115 18 4.47115L18.4615 4.73077L18.4615 8.30769L22.1538 8.30769L22.1538 5.71154C22.1538 4.47503 21.3559 3.38394 20.1635 3.02885Z" id="Shape" fill="#FFFFFF" fill-rule="evenodd" stroke="none" />
    <g id="Group-3" transform="translate(4 12)">
      <path d="M0 1.84615C0 0.826552 0.826551 0 1.84615 0C2.86576 0 3.69231 0.826552 3.69231 1.84615C3.69231 2.86576 2.86576 3.69231 1.84615 3.69231C0.826551 3.69231 0 2.86576 0 1.84615ZM5.53846 1.84615C5.53846 0.826552 6.36501 0 7.38462 0C8.40422 0 9.23077 0.826552 9.23077 1.84615C9.23077 2.86576 8.40422 3.69231 7.38462 3.69231C6.36501 3.69231 5.53846 2.86576 5.53846 1.84615ZM11.0769 1.84615C11.0769 0.826552 11.9035 0 12.9231 0C13.9427 0 14.7692 0.826552 14.7692 1.84615C14.7692 2.86576 13.9427 3.69231 12.9231 3.69231C11.9035 3.69231 11.0769 2.86576 11.0769 1.84615ZM0 7.38462C0 6.36501 0.826551 5.53846 1.84615 5.53846C2.86576 5.53846 3.69231 6.36501 3.69231 7.38462C3.69231 8.40422 2.86576 9.23077 1.84615 9.23077C0.826551 9.23077 0 8.40422 0 7.38462ZM5.53846 7.38462C5.53846 6.36501 6.36501 5.53846 7.38462 5.53846C8.40422 5.53846 9.23077 6.36501 9.23077 7.38462C9.23077 8.40422 8.40422 9.23077 7.38462 9.23077C6.36501 9.23077 5.53846 8.40422 5.53846 7.38462ZM11.0769 7.38462C11.0769 6.36501 11.9035 5.53846 12.9231 5.53846C13.9427 5.53846 14.7692 6.36501 14.7692 7.38462C14.7692 8.40422 13.9427 9.23077 12.9231 9.23077C11.9035 9.23077 11.0769 8.40422 11.0769 7.38462Z" transform="translate(0.6153846 0)" id="Combined-Shape" fill="#FFFFFF" fill-rule="evenodd" stroke="none" />
    </g>
  </g>
</svg>