<?xml version="1.0" encoding="utf-8"?>
<svg width="26px" height="20px" viewBox="0 0 26 20" version="1.1" xmlns:xlink="http://www.w3.org/1999/xlink" xmlns="http://www.w3.org/2000/svg">
  <desc>Created with Lunacy</desc>
  <g id="icons8-business_contact">
    <path d="M0 20L0 0L26 0L26 20L0 20ZM24 2L2 2L2 18L5.40625 18C5.48585 17.8629 5.44908 17.6759 5.5625 17.5625C5.93953 17.1855 6.47778 17 7 17C7.52222 17 8.06047 17.1855 8.4375 17.5625C8.55092 17.6759 8.51415 17.8629 8.59375 18L17.4063 18C17.4858 17.8629 17.4491 17.6759 17.5625 17.5625C17.9395 17.1855 18.4778 17 19 17C19.5222 17 20.0605 17.1855 20.4375 17.5625C20.5509 17.6759 20.5142 17.8629 20.5938 18L24 18L24 2ZM9 4C6.80271 4 5 5.80271 5 8C5 9.11423 5.47526 10.1161 6.21875 10.8438C4.88796 11.7456 4 13.2841 4 15L6 15C6 13.3455 7.34546 12 9 12C10.6545 12 12 13.3455 12 15L14 15C14 13.2841 13.112 11.7456 11.7813 10.8438C12.5247 10.1161 13 9.11423 13 8C13 5.80271 11.1973 4 9 4ZM11 8C11 6.88359 10.1164 6 9 6C7.88359 6 7 6.88359 7 8C7 9.11641 7.88359 10 9 10C10.1164 10 11 9.11641 11 8ZM16 9L22 9L22 7L16 7L16 9ZM22 13L16 13L16 11L22 11L22 13Z" id="Shape" fill="#FFFFFF" fill-rule="evenodd" stroke="none" />
  </g>
</svg>