<?xml version="1.0" encoding="utf-8"?>
<svg width="20px" height="20px" viewBox="0 0 20 20" version="1.1" xmlns:xlink="http://www.w3.org/1999/xlink" xmlns="http://www.w3.org/2000/svg">
  <desc>Created with Lunacy</desc>
  <g id="icons8-dashboard">
    <path d="M0 10C0 4.5 4.5 0 10 0C15.5 0 20 4.5 20 10C20 15.5 15.5 20 10 20C4.5 20 0 15.5 0 10ZM18 10C18 5.6 14.4 2 10 2C5.6 2 2 5.6 2 10C2 14.4 5.6 18 10 18C14.4 18 18 14.4 18 10Z" id="Shape" fill="#FFFFFF" fill-rule="evenodd" stroke="none" />
    <g id="Group-2" transform="translate(3 2.90625)">
      <path d="M7.5 1.09375L7.5 0C7.9 0.1 8.29375 0.0875 8.59375 0.1875L8.40625 1.1875C8.10625 1.1875 7.8 1.09375 7.5 1.09375ZM4.40625 0.59375C4.70625 0.49375 5.1 0.3875 5.5 0.1875L5.6875 1.1875L4.8125 1.5L4.40625 0.59375ZM10.2813 0.90625L7.21875 5.125C7.14616 5.11702 7.07472 5.09375 7 5.09375C5.89543 5.09375 5 5.98918 5 7.09375C5 8.19832 5.89543 9.09375 7 9.09375C8.10457 9.09375 9 8.19832 9 7.09375C9 6.81761 8.94496 6.55178 8.84375 6.3125C8.84199 6.30833 8.84288 6.30264 8.84378 6.29694C8.84468 6.29119 8.84559 6.28543 8.84375 6.28125L11.9063 2.09375L10.2813 0.90625ZM1.8125 2.40625C2.0125 2.20625 2.29375 1.8875 2.59375 1.6875L3.1875 2.5C2.9875 2.7 2.7 2.89375 2.5 3.09375L1.8125 2.40625ZM12.9063 3.40625L12.0938 3.90625C12.2937 4.20625 12.4 4.3875 12.5 4.6875L13.4063 4.28125C13.3062 3.98125 13.1062 3.70625 12.9063 3.40625ZM0.1875 5.1875C0.2875 4.8875 0.49375 4.4875 0.59375 4.1875L1.5 4.59375L1.1875 5.5L0.1875 5.1875ZM14 6.40625L13 6.5L13 7.40625L14 7.40625L14 6.40625ZM0.09375 8.40625C0.09375 8.00625 0 7.68125 0 7.28125L1 7.28125C1 7.58125 1.09375 7.8875 1.09375 8.1875L0.09375 8.40625ZM12.6875 9.1875C12.4875 9.4875 12.3875 9.8 12.1875 10L13.0938 10.5C13.2937 10.2 13.3938 9.9 13.5938 9.5L12.6875 9.1875ZM0.90625 10.5L1.6875 10C1.7875 10.3 1.9875 10.5813 2.1875 10.7813L1.40625 11.4063C1.20625 11.1062 1.00625 10.8 0.90625 10.5Z" id="Combined-Shape" fill="#FFFFFF" fill-rule="evenodd" stroke="none" />
    </g>
  </g>
</svg>